<svg width="40" height="40" viewBox="0 0 40 40" fill="none" xmlns="http://www.w3.org/2000/svg">
<path d="M6.66665 6.66667C5.78259 6.66667 4.93474 7.01786 4.30962 7.64298C3.6845 8.2681 3.33331 9.11595 3.33331 10V16.6667C4.21737 16.6667 5.06521 17.0179 5.69034 17.643C6.31546 18.2681 6.66665 19.1159 6.66665 20C6.66665 20.8841 6.31546 21.7319 5.69034 22.357C5.06521 22.9821 4.21737 23.3333 3.33331 23.3333V30C3.33331 30.8841 3.6845 31.7319 4.30962 32.357C4.93474 32.9821 5.78259 33.3333 6.66665 33.3333H33.3333C34.2174 33.3333 35.0652 32.9821 35.6903 32.357C36.3155 31.7319 36.6666 30.8841 36.6666 30V23.3333C35.7826 23.3333 34.9347 22.9821 34.3096 22.357C33.6845 21.7319 33.3333 20.8841 33.3333 20C33.3333 19.1159 33.6845 18.2681 34.3096 17.643C34.9347 17.0179 35.7826 16.6667 36.6666 16.6667V10C36.6666 9.11595 36.3155 8.2681 35.6903 7.64298C35.0652 7.01786 34.2174 6.66667 33.3333 6.66667H6.66665ZM25.8333 11.6667L28.3333 14.1667L14.1666 28.3333L11.6666 25.8333L25.8333 11.6667ZM14.6833 11.7333C16.3166 11.7333 17.6333 13.05 17.6333 14.6833C17.6333 15.4657 17.3225 16.2161 16.7693 16.7693C16.216 17.3225 15.4657 17.6333 14.6833 17.6333C13.05 17.6333 11.7333 16.3167 11.7333 14.6833C11.7333 13.901 12.0441 13.1506 12.5973 12.5974C13.1506 12.0441 13.9009 11.7333 14.6833 11.7333ZM25.3166 22.3667C26.95 22.3667 28.2666 23.6833 28.2666 25.3167C28.2666 26.0991 27.9558 26.8494 27.4026 27.4026C26.8494 27.9559 26.099 28.2667 25.3166 28.2667C23.6833 28.2667 22.3666 26.95 22.3666 25.3167C22.3666 24.5343 22.6774 23.7839 23.2307 23.2307C23.7839 22.6775 24.5343 22.3667 25.3166 22.3667Z" fill="#7D94D8"/>
</svg>
