<svg width="40" height="40" viewBox="0 0 40 40" fill="none" xmlns="http://www.w3.org/2000/svg">
<path d="M20 3.33333C10.8 3.33333 3.33331 10.8 3.33331 20C3.33331 29.2 10.8 36.6667 20 36.6667C29.2 36.6667 36.6666 29.2 36.6666 20C36.6666 10.8 29.2 3.33333 20 3.33333ZM21.6666 31.6667H18.3333V28.3333H21.6666V31.6667ZM25.1166 18.75L23.6166 20.2833C22.4166 21.5 21.6666 22.5 21.6666 25H18.3333V24.1667C18.3333 22.3333 19.0833 20.6667 20.2833 19.45L22.35 17.35C22.9666 16.75 23.3333 15.9167 23.3333 15C23.3333 13.1667 21.8333 11.6667 20 11.6667C18.1666 11.6667 16.6666 13.1667 16.6666 15H13.3333C13.3333 11.3167 16.3166 8.33333 20 8.33333C23.6833 8.33333 26.6666 11.3167 26.6666 15C26.6666 16.4667 26.0666 17.8 25.1166 18.75Z" fill="#7D94D8"/>
</svg>
