<svg width="40" height="40" viewBox="0 0 40 40" fill="none" xmlns="http://www.w3.org/2000/svg">
<path d="M20 13.3333V20L24.1667 24.1667" stroke="#7D94D8" stroke-width="1.5" stroke-linecap="round" stroke-linejoin="round"/>
<path d="M7.23002 11.4517L5.98002 11.4567C5.98134 11.7862 6.1127 12.1018 6.34554 12.335C6.57838 12.5681 6.89386 12.6999 7.22336 12.7017L7.23002 11.4517ZM11.4667 12.7217C11.6308 12.7224 11.7935 12.6909 11.9455 12.6287C12.0974 12.5666 12.2357 12.4752 12.3523 12.3597C12.4689 12.2441 12.5616 12.1068 12.6251 11.9554C12.6887 11.804 12.7218 11.6416 12.7225 11.4775C12.7233 11.3133 12.6917 11.1506 12.6296 10.9987C12.5675 10.8467 12.4761 10.7085 12.3605 10.5919C12.245 10.4753 12.1076 10.3826 11.9563 10.319C11.8049 10.2555 11.6425 10.2224 11.4784 10.2217L11.4667 12.7217ZM8.45836 7.20166C8.45748 7.03751 8.42428 6.87513 8.36065 6.72381C8.29703 6.57249 8.20422 6.43518 8.08753 6.31973C7.97083 6.20427 7.83254 6.11294 7.68055 6.05093C7.52856 5.98892 7.36584 5.95745 7.20169 5.95833C7.03754 5.9592 6.87516 5.9924 6.72384 6.05603C6.57252 6.11966 6.43521 6.21246 6.31976 6.32916C6.2043 6.44585 6.11297 6.58414 6.05096 6.73613C5.98895 6.88812 5.95748 7.05084 5.95836 7.21499L8.45836 7.20166ZM6.37836 17.975C6.40231 17.8116 6.39365 17.6451 6.3529 17.4851C6.31214 17.3251 6.24009 17.1748 6.1409 17.0428C6.04172 16.9108 5.91736 16.7997 5.77502 16.7161C5.63267 16.6324 5.47516 16.5777 5.31158 16.5553C5.148 16.5328 4.9816 16.543 4.82197 16.5852C4.66235 16.6274 4.51267 16.7009 4.38158 16.8013C4.25049 16.9016 4.14058 17.027 4.05822 17.1701C3.97585 17.3132 3.92265 17.4712 3.90169 17.635L6.37836 17.975ZM31.4367 8.56333C25.07 2.19666 14.7817 2.12999 8.45669 8.45666L10.2234 10.2233C15.5567 4.89166 24.2617 4.92333 29.67 10.33L31.4367 8.56333ZM8.56336 31.4367C14.93 37.8033 25.2184 37.87 31.5434 31.5433L29.7767 29.7767C24.4434 35.1083 15.7384 35.0767 10.33 29.67L8.56336 31.4367ZM31.5434 31.5433C37.8684 25.2183 37.8034 14.93 31.4367 8.56333L29.67 10.33C35.0767 15.7383 35.1084 24.4433 29.7767 29.7767L31.5434 31.5433ZM8.45669 8.45666L6.34502 10.5667L8.11336 12.3333L10.2234 10.2233L8.45669 8.45666ZM7.22336 12.7017L11.4667 12.7217L11.4784 10.2217L7.23669 10.2017L7.22336 12.7017ZM8.48002 11.445L8.45836 7.20166L5.95836 7.21499L5.98002 11.4567L8.48002 11.445ZM3.90002 17.6333C3.5578 20.1378 3.8008 22.6874 4.60992 25.0821C5.41905 27.4768 6.77228 29.653 8.56336 31.4367L10.33 29.67C8.81206 28.1588 7.6652 26.3145 6.97953 24.2853C6.29387 22.2561 6.08809 20.0972 6.37836 17.975L3.90002 17.6333Z" fill="#7D94D8"/>
</svg>
